<svg width="519" height="450" viewBox="0 0 519 450" fill="none" xmlns="http://www.w3.org/2000/svg">
<path d="M470.372 265.095L496.665 132.375C497.556 127.891 497.47 123.59 496.481 119.59C495.474 115.559 493.524 111.746 490.653 108.266C487.782 104.754 484.403 102.102 480.673 100.336C476.978 98.5902 472.778 97.6801 468.189 97.6801H115.719L148.899 265.09C150.258 271.996 153.872 277.84 158.879 281.957C163.868 286.055 170.32 288.442 177.375 288.442H441.895C448.95 288.442 455.403 286.039 460.391 281.957C465.399 277.859 469.008 271.996 470.372 265.09L470.372 265.095ZM391.208 339.669C406.31 339.669 420.005 345.802 429.915 355.696C439.81 365.59 445.942 379.282 445.942 394.403C445.942 409.505 439.809 423.2 429.915 433.094C420.005 443.004 406.329 449.121 391.208 449.121C376.087 449.121 362.411 442.988 352.501 433.094C342.607 423.199 336.474 409.508 336.474 394.403C336.474 379.282 342.607 365.606 352.501 355.696C362.411 345.801 376.087 339.669 391.208 339.669V339.669ZM414.763 370.849C408.732 364.818 400.415 361.087 391.208 361.087C382.001 361.087 373.685 364.818 367.653 370.849C361.621 376.88 357.911 385.197 357.911 394.404C357.911 403.595 361.641 411.927 367.653 417.959C373.684 423.99 382.001 427.721 391.208 427.721C400.415 427.721 408.731 423.99 414.763 417.959C420.779 411.928 424.505 403.611 424.505 394.404C424.505 385.197 420.775 376.881 414.763 370.849V370.849ZM213.173 339.669C228.275 339.669 241.97 345.802 251.864 355.696C261.774 365.59 267.891 379.282 267.891 394.403C267.891 409.505 261.758 423.2 251.864 433.094C241.97 443.004 228.278 449.121 213.173 449.121C198.052 449.121 184.376 442.988 174.466 433.094C164.572 423.199 158.439 409.508 158.439 394.403C158.439 379.282 164.572 365.606 174.466 355.696C184.361 345.801 198.052 339.669 213.173 339.669V339.669ZM236.728 370.849C230.697 364.818 222.38 361.087 213.173 361.087C203.966 361.087 195.65 364.818 189.618 370.849C183.586 376.88 179.856 385.197 179.856 394.404C179.856 403.595 183.587 411.927 189.618 417.959C195.649 423.991 203.966 427.721 213.173 427.721C222.364 427.721 230.696 423.99 236.728 417.959C242.76 411.928 246.49 403.611 246.49 394.404C246.49 385.197 242.759 376.881 236.728 370.849ZM92.098 88.539L78.793 21.422H10.719C4.8049 21.422 0 16.6329 0 10.719C0 4.8051 4.8047 0 10.719 0H87.578C92.6014 0 97.0858 3.543 98.078 8.6523L111.469 76.2573H468.189C475.9 76.2573 483.173 77.8706 489.794 80.9956C496.364 84.105 502.208 88.7065 507.149 94.7026C512.087 100.718 515.481 107.355 517.247 114.394C519.028 121.468 519.181 128.894 517.684 136.468L491.392 269.188C489.04 281.083 482.739 291.247 473.97 298.438C465.184 305.645 453.993 309.864 441.915 309.864H177.395C165.297 309.864 154.125 305.645 145.34 298.438C136.57 291.231 130.269 281.083 127.917 269.188L92.3195 89.5576C92.2336 89.2217 92.1672 88.8701 92.1164 88.5146L92.098 88.539Z" fill="black"/>
</svg>
